<svg width="34" height="34" viewBox="0 0 34 34" fill="none" xmlns="http://www.w3.org/2000/svg">
<path d="M12.8384 3.34052C13.243 3.34052 13.6459 3.33882 14.0505 3.34052C14.2545 3.34052 14.5129 3.53772 14.5588 3.73662C14.5707 3.79102 14.5537 3.86242 14.5248 3.91172C14.4449 4.05452 14.4534 4.19052 14.5197 4.33332C14.5979 4.50162 14.6693 4.67162 14.7424 4.84162C14.8002 4.97762 14.8087 5.11532 14.6625 5.19692C14.4602 5.30742 14.4534 5.48252 14.467 5.67632C14.4891 5.98062 14.5367 6.28662 14.5231 6.59092C14.4959 7.17402 14.6166 7.73162 14.739 8.29602C14.9566 9.29562 15.3867 10.2153 15.7403 11.1656C15.8916 11.5719 16.0514 11.9748 16.2112 12.3794C16.3064 12.6191 16.3166 12.8622 16.2656 13.1138C16.2537 13.175 16.2554 13.243 16.269 13.3042C16.3761 13.7836 16.5087 14.2579 16.592 14.7407C16.6651 15.1657 16.6991 15.5992 16.7263 16.031C16.7467 16.3693 16.7382 16.711 16.728 17.0493C16.7212 17.3094 16.677 17.5695 16.677 17.8296C16.677 18.0897 16.7297 18.3498 16.7229 18.6099C16.7144 19.0111 16.6855 19.4123 16.6447 19.8118C16.6056 20.1909 16.5393 20.5683 16.4798 20.9457C16.4339 21.2415 16.3744 21.5356 16.3336 21.8314C16.2724 22.2717 16.2197 22.7137 16.1636 23.1557C16.1415 23.3325 16.1143 23.5093 16.1041 23.6878C16.0514 24.6755 16.269 25.6156 16.592 26.5404C16.7552 27.0062 16.8555 27.4805 16.8623 27.982C16.8759 28.8609 16.2367 29.5477 15.5584 29.7942C15.0535 29.9778 14.535 30.1053 13.9893 30.1121C13.2872 30.1223 12.5817 30.1971 11.8813 30.1563C11.1197 30.1121 10.3462 30.0084 9.68665 29.5681C9.13245 29.1975 8.80605 28.6858 8.80775 27.9803C8.80775 27.4176 8.96585 26.8974 9.13245 26.3738C9.36025 25.6598 9.56255 24.9424 9.51155 24.1774C9.48945 23.8391 9.52855 23.4957 9.50305 23.1591C9.46905 22.7341 9.39935 22.3125 9.34155 21.8909C9.29735 21.5696 9.24465 21.25 9.19535 20.9287C9.11885 20.4323 9.02705 19.9359 8.97095 19.4378C8.93865 19.1471 8.95905 18.8513 8.95735 18.5589C8.95565 18.3005 8.95735 18.0421 8.95735 17.7837C8.95735 17.7208 8.94375 17.6562 8.94375 17.5933C8.94205 17.119 8.92165 16.643 8.94885 16.1704C8.97945 15.6502 9.03725 15.13 9.11885 14.6166C9.19025 14.1712 9.31265 13.7326 9.41125 13.2923C9.41975 13.2549 9.42655 13.2141 9.41805 13.1784C9.29055 12.6565 9.49965 12.1975 9.68495 11.7351C9.91105 11.1639 10.149 10.5995 10.37 10.03C10.5332 9.60842 10.7049 9.18512 10.8256 8.74992C11.0772 7.84042 11.2166 6.91392 11.1503 5.96532C11.1384 5.80552 11.1639 5.64232 11.1435 5.48592C11.1299 5.38902 11.0789 5.28362 11.0126 5.21222C10.9259 5.11872 10.8732 5.04392 10.9293 4.90962C11.0177 4.69712 11.1061 4.48292 11.1622 4.26192C11.1911 4.14972 11.1452 4.02052 11.1418 3.89812C11.1384 3.81652 11.1231 3.71622 11.1605 3.65502C11.2812 3.45612 11.4393 3.32182 11.7062 3.33712C12.0802 3.35752 12.4593 3.34052 12.8384 3.34052Z" fill="#F1F2ED"/>
<path d="M4.69356 6.29675C5.01316 6.29675 5.33446 6.29505 5.65406 6.29675C5.95836 6.29845 6.12326 6.54495 6.03486 6.83055C6.00936 6.91215 6.03146 7.01755 6.05696 7.10595C6.08586 7.20965 6.13346 7.30995 6.18446 7.40515C6.28816 7.59895 6.30516 7.75535 6.08586 7.89475C6.02466 7.93385 6.01106 8.07835 6.01276 8.17525C6.02126 8.53225 6.03826 8.88925 6.06546 9.24455C6.08416 9.48595 6.12156 9.72395 6.15726 9.96365C6.26096 10.6861 6.53126 11.3559 6.79476 12.0274C7.00896 12.5748 7.22656 13.1205 7.42716 13.673C7.47986 13.8192 7.48156 13.9841 7.50196 14.1405C7.52406 14.3207 7.51726 14.5077 7.56146 14.6828C7.82836 15.7385 7.89976 16.8129 7.86576 17.8958C7.85556 18.212 7.87936 18.5299 7.86066 18.8461C7.83686 19.2405 7.79436 19.6333 7.74506 20.0243C7.69066 20.4475 7.62096 20.8692 7.55636 21.2908C7.51386 21.5679 7.44756 21.8433 7.43226 22.1221C7.40166 22.649 7.37786 23.1777 7.38976 23.7048C7.40676 24.4188 7.71956 25.0665 7.89466 25.7465C7.98476 26.0966 8.01536 26.4468 7.93036 26.8073C7.80626 27.3393 7.46116 27.6845 6.98686 27.8953C6.57206 28.0788 6.12496 28.174 5.66596 28.1876C5.17466 28.2029 4.68336 28.2369 4.19206 28.2403C3.58006 28.2437 2.98166 28.1367 2.41386 27.9106C1.85796 27.6896 1.33946 27.1371 1.39896 26.4316C1.42616 26.1035 1.47886 25.7736 1.55536 25.4523C1.67096 24.961 1.83076 24.4816 1.94466 23.9903C1.99056 23.788 1.95486 23.5687 1.96676 23.3596C2.01606 22.4841 1.85626 21.6307 1.72026 20.7739C1.62166 20.1585 1.56386 19.5363 1.50776 18.9141C1.48906 18.7135 1.55196 18.5079 1.54856 18.3056C1.54176 17.7633 1.48396 17.2175 1.51286 16.6769C1.54176 16.138 1.64546 15.6042 1.72876 15.0687C1.76276 14.8545 1.83076 14.6471 1.88176 14.4363C1.88856 14.4057 1.89536 14.3717 1.88856 14.3411C1.78316 13.8906 1.98036 13.5047 2.13506 13.1052C2.45466 12.2841 2.78446 11.4664 3.05986 10.63C3.33696 9.78855 3.33526 8.90625 3.29956 8.02735C3.29786 7.96445 3.26216 7.88285 3.21456 7.84885C3.09386 7.75875 3.08196 7.66015 3.13636 7.53095C3.19076 7.40175 3.23496 7.26745 3.28596 7.13655C3.33866 7.00225 3.36926 6.87985 3.28766 6.73535C3.20096 6.57895 3.45426 6.30185 3.67696 6.30015C4.01356 6.29335 4.35356 6.29675 4.69356 6.29675Z" fill="black"/>
<path d="M21.65 6.79643C21.9764 6.79643 22.3028 6.79303 22.6309 6.79643C22.9216 6.79983 23.0882 7.05313 22.9998 7.32343C22.9726 7.40503 22.993 7.51213 23.0168 7.59883C23.0474 7.70933 23.0967 7.81473 23.1511 7.91503C23.2548 8.10373 23.2616 8.25333 23.0525 8.38763C22.9913 8.42673 22.9726 8.57123 22.9743 8.66643C22.9828 9.03533 22.9981 9.40593 23.027 9.77483C23.044 10.0094 23.0865 10.2423 23.1205 10.4752C23.2225 11.1841 23.4894 11.842 23.7444 12.5033C23.9603 13.0626 24.1864 13.6202 24.3921 14.1829C24.4448 14.3291 24.4431 14.494 24.4618 14.6521C24.4822 14.8204 24.4737 14.9938 24.5162 15.1553C24.7865 16.2246 24.8613 17.3092 24.8256 18.4074C24.8154 18.7168 24.8392 19.0279 24.8205 19.3373C24.7967 19.7317 24.7559 20.1244 24.7066 20.5154C24.6522 20.9455 24.5774 21.3722 24.5162 21.8006C24.4482 22.28 24.3683 22.7577 24.3258 23.2405C24.2986 23.5499 24.3207 23.8661 24.3377 24.1789C24.3768 24.898 24.6709 25.5542 24.8494 26.2393C24.9446 26.6014 24.9769 26.9669 24.88 27.3375C24.7389 27.8798 24.3819 28.2419 23.877 28.4136C23.4656 28.5547 23.0236 28.6278 22.5901 28.6771C22.1226 28.7315 21.6466 28.7332 21.1757 28.7383C20.5569 28.7434 19.9534 28.6363 19.3771 28.4102C18.8211 28.1926 18.2975 27.6367 18.357 26.9346C18.3859 26.5929 18.4454 26.2529 18.5236 25.9197C18.6375 25.4352 18.8109 24.9626 18.901 24.4747C18.9605 24.1449 18.9112 23.7981 18.9248 23.4581C18.9537 22.7237 18.7786 22.0131 18.6817 21.294C18.5984 20.6701 18.5236 20.0428 18.4641 19.4155C18.4454 19.2149 18.5083 19.0092 18.5049 18.8069C18.4981 18.3224 18.4675 17.8362 18.4607 17.3517C18.4471 16.5527 18.6239 15.7809 18.8109 15.0108C18.8245 14.9547 18.8551 14.8952 18.8432 14.8442C18.7412 14.4073 18.918 14.0282 19.071 13.6406C19.3244 12.9997 19.5998 12.3656 19.8191 11.7128C19.9993 11.1756 20.1608 10.6231 20.2373 10.0655C20.3087 9.55043 20.2577 9.01663 20.2543 8.49133C20.2543 8.44203 20.2186 8.37403 20.1778 8.34683C20.0418 8.25673 20.0435 8.14623 20.0996 8.01363C20.154 7.88443 20.1965 7.75013 20.2492 7.61923C20.3002 7.49003 20.3257 7.37443 20.2492 7.23673C20.1625 7.07863 20.409 6.79983 20.6317 6.79643C20.97 6.79303 21.31 6.79643 21.65 6.79643Z" fill="black"/>
<path d="M29.4087 8.71995C29.7283 8.71995 30.0496 8.71825 30.3692 8.71995C30.6888 8.72165 30.8554 8.95965 30.7653 9.25545C30.7398 9.33705 30.7619 9.44415 30.7891 9.53085C30.8367 9.67535 30.9081 9.81305 30.9693 9.95415C31.022 10.0765 31.0067 10.1836 30.886 10.2533C30.7432 10.3332 30.733 10.4607 30.7398 10.6001C30.7585 10.9759 30.7687 11.3532 30.7959 11.7272C30.8129 11.9483 30.8554 12.1693 30.886 12.3886C30.9897 13.1043 31.2566 13.7689 31.5167 14.4353C31.7326 14.9879 31.9536 15.5404 32.1576 16.098C32.2086 16.2374 32.212 16.3972 32.2307 16.5468C32.2562 16.7525 32.2545 16.965 32.3038 17.1639C32.5622 18.2094 32.6268 19.2702 32.5928 20.3412C32.5826 20.6455 32.6064 20.9498 32.5877 21.2524C32.5639 21.6519 32.5214 22.0514 32.4704 22.4492C32.4177 22.8725 32.3463 23.2941 32.2817 23.7157C32.2409 23.986 32.1848 24.2563 32.1593 24.5283C32.1083 25.0604 32.0471 25.5891 32.1032 26.1314C32.1746 26.8352 32.4415 27.4812 32.6166 28.1527C32.7118 28.5216 32.7458 28.8922 32.6472 29.2696C32.5129 29.7813 32.1729 30.1162 31.7105 30.3185C31.294 30.5004 30.8486 30.5973 30.3896 30.6109C29.8983 30.6262 29.407 30.6602 28.9157 30.6636C28.3037 30.667 27.7053 30.5599 27.1375 30.3338C26.5833 30.1111 26.0648 29.5603 26.126 28.8514C26.1549 28.5165 26.2127 28.1816 26.2892 27.8552C26.4031 27.3707 26.5731 26.8981 26.6683 26.4102C26.7261 26.1127 26.6785 25.7965 26.6938 25.4905C26.7312 24.717 26.5561 23.969 26.449 23.2108C26.3623 22.5988 26.2705 21.9868 26.2382 21.3714C26.2025 20.6846 26.2331 19.9944 26.2297 19.3059C26.2246 18.4933 26.3895 17.7079 26.585 16.9258C26.5986 16.8715 26.6258 16.8103 26.6139 16.7593C26.5136 16.3156 26.7023 15.9348 26.8553 15.5403C27.1732 14.7193 27.5064 13.9016 27.7835 13.0652C28.064 12.2169 28.064 11.3277 28.03 10.4437C28.0283 10.3859 28.0011 10.306 27.9586 10.2771C27.8022 10.1751 27.8226 10.0528 27.8821 9.90995C27.9433 9.76205 28.0028 9.61415 28.0487 9.46115C28.0691 9.39145 28.0776 9.30645 28.0555 9.24015C27.9671 8.98005 28.1354 8.72335 28.4125 8.71825C28.7423 8.71655 29.0755 8.71995 29.4087 8.71995Z" fill="#F1F2ED"/>
</svg>
